<svg xmlns="http://www.w3.org/2000/svg" viewBox="0 0 100 100">
  <defs>
    <linearGradient id="nexusGradient" x1="0%" y1="0%" x2="100%" y2="100%">
      <stop offset="0%" style="stop-color:#06b6d4;stop-opacity:1" />
      <stop offset="50%" style="stop-color:#8b5cf6;stop-opacity:1" />
      <stop offset="100%" style="stop-color:#d946ef;stop-opacity:1" />
    </linearGradient>
  </defs>
  
  <!-- Nexus AI Logo - Letter A with neural network connections -->
  
  <!-- Main A structure -->
  <path d="M30 80 L50 25 L70 80" 
        stroke="url(#nexusGradient)" 
        stroke-width="4" 
        fill="none" 
        stroke-linecap="round" 
        stroke-linejoin="round"/>
  
  <!-- Crossbar of A -->
  <path d="M38 62 L62 62" 
        stroke="url(#nexusGradient)" 
        stroke-width="4" 
        stroke-linecap="round"/>
  
  <!-- Neural network nodes -->
  <circle cx="20" cy="75" r="3" fill="#06b6d4"/>
  <circle cx="15" cy="60" r="2.5" fill="#0891b2"/>
  <circle cx="25" cy="50" r="2" fill="#0e7490"/>
  
  <circle cx="80" cy="75" r="3" fill="#d946ef"/>
  <circle cx="85" cy="60" r="2.5" fill="#c026d3"/>
  <circle cx="75" cy="50" r="2" fill="#a21caf"/>
  
  <circle cx="50" cy="20" r="3" fill="#8b5cf6"/>
  <circle cx="45" cy="15" r="2" fill="#7c3aed"/>
  <circle cx="55" cy="15" r="2" fill="#7c3aed"/>
  
  <!-- Connection lines (neural pathways) -->
  <path d="M20 75 L30 80" stroke="#06b6d4" stroke-width="1.5" opacity="0.6"/>
  <path d="M15 60 L30 65" stroke="#0891b2" stroke-width="1" opacity="0.4"/>
  <path d="M25 50 L35 55" stroke="#0e7490" stroke-width="1" opacity="0.4"/>
  
  <path d="M80 75 L70 80" stroke="#d946ef" stroke-width="1.5" opacity="0.6"/>
  <path d="M85 60 L70 65" stroke="#c026d3" stroke-width="1" opacity="0.4"/>
  <path d="M75 50 L65 55" stroke="#a21caf" stroke-width="1" opacity="0.4"/>
  
  <path d="M50 20 L50 25" stroke="#8b5cf6" stroke-width="1.5" opacity="0.6"/>
  <path d="M45 15 L48 22" stroke="#7c3aed" stroke-width="1" opacity="0.4"/>
  <path d="M55 15 L52 22" stroke="#7c3aed" stroke-width="1" opacity="0.4"/>
</svg>