<svg xmlns="http://www.w3.org/2000/svg" viewBox="0 0 32 32">
  <defs>
    <linearGradient id="aiGrad" x1="0%" y1="0%" x2="100%" y2="100%">
      <stop offset="0%" style="stop-color:#9333EA;stop-opacity:1" />
      <stop offset="50%" style="stop-color:#EC4899;stop-opacity:1" />
      <stop offset="100%" style="stop-color:#F97316;stop-opacity:1" />
    </linearGradient>
    <filter id="glow">
      <feGaussianBlur stdDeviation="2" result="coloredBlur"/>
      <feMerge>
        <feMergeNode in="coloredBlur"/>
        <feMergeNode in="SourceGraphic"/>
      </feMerge>
    </filter>
  </defs>
  <!-- Background -->
  <rect width="32" height="32" rx="6" fill="#0F0F1F"/>
  
  <!-- AI Brain Circuit Pattern -->
  <g opacity="0.3">
    <path d="M16 8 L16 24" stroke="url(#aiGrad)" stroke-width="0.5"/>
    <path d="M8 16 L24 16" stroke="url(#aiGrad)" stroke-width="0.5"/>
    <circle cx="16" cy="8" r="1" fill="url(#aiGrad)"/>
    <circle cx="16" cy="24" r="1" fill="url(#aiGrad)"/>
    <circle cx="8" cy="16" r="1" fill="url(#aiGrad)"/>
    <circle cx="24" cy="16" r="1" fill="url(#aiGrad)"/>
  </g>
  
  <!-- Central AI Symbol -->
  <g filter="url(#glow)">
    <!-- Outer hexagon -->
    <path d="M16 6 L22 10 L22 18 L16 22 L10 18 L10 10 Z" 
          fill="none" 
          stroke="url(#aiGrad)" 
          stroke-width="1.5"/>
    
    <!-- Inner AI brain waves -->
    <path d="M13 13 Q16 11 19 13" 
          fill="none" 
          stroke="url(#aiGrad)" 
          stroke-width="1.2" 
          opacity="0.9"/>
    <path d="M13 16 Q16 14 19 16" 
          fill="none" 
          stroke="url(#aiGrad)" 
          stroke-width="1.2" 
          opacity="0.7"/>
    <path d="M13 19 Q16 17 19 19" 
          fill="none" 
          stroke="url(#aiGrad)" 
          stroke-width="1.2" 
          opacity="0.5"/>
    
    <!-- Central dot -->
    <circle cx="16" cy="16" r="2" fill="url(#aiGrad)" opacity="0.9"/>
  </g>
  
  <!-- Corner accent -->
  <circle cx="26" cy="6" r="2" fill="#EC4899" opacity="0.8"/>
</svg>