<svg width="48" height="48" viewBox="0 0 48 48" fill="none" xmlns="http://www.w3.org/2000/svg">
  <!-- Gear/Industrial Background -->
  <circle cx="24" cy="24" r="20" fill="url(#gradient1)" />
  
  <!-- Inner Gear Pattern -->
  <g transform="translate(24, 24)">
    <!-- Gear Teeth -->
    <path d="M 0,-18 L 3,-20 L 3,-22 L -3,-22 L -3,-20 Z" fill="#0891b2" transform="rotate(0)" />
    <path d="M 0,-18 L 3,-20 L 3,-22 L -3,-22 L -3,-20 Z" fill="#0891b2" transform="rotate(45)" />
    <path d="M 0,-18 L 3,-20 L 3,-22 L -3,-22 L -3,-20 Z" fill="#0891b2" transform="rotate(90)" />
    <path d="M 0,-18 L 3,-20 L 3,-22 L -3,-22 L -3,-20 Z" fill="#0891b2" transform="rotate(135)" />
    <path d="M 0,-18 L 3,-20 L 3,-22 L -3,-22 L -3,-20 Z" fill="#0891b2" transform="rotate(180)" />
    <path d="M 0,-18 L 3,-20 L 3,-22 L -3,-22 L -3,-20 Z" fill="#0891b2" transform="rotate(225)" />
    <path d="M 0,-18 L 3,-20 L 3,-22 L -3,-22 L -3,-20 Z" fill="#0891b2" transform="rotate(270)" />
    <path d="M 0,-18 L 3,-20 L 3,-22 L -3,-22 L -3,-20 Z" fill="#0891b2" transform="rotate(315)" />
  </g>
  
  <!-- Center N Symbol -->
  <path d="M 16 30 L 16 18 L 24 30 L 24 18 M 24 30 L 32 18 L 32 30" stroke="white" stroke-width="2.5" fill="none" stroke-linecap="round" stroke-linejoin="round"/>
  
  <!-- AI Dots (representing intelligence) -->
  <circle cx="24" cy="24" r="2" fill="white" />
  <circle cx="18" cy="24" r="1.5" fill="white" opacity="0.7" />
  <circle cx="30" cy="24" r="1.5" fill="white" opacity="0.7" />
  
  <!-- Gradient Definition -->
  <defs>
    <linearGradient id="gradient1" x1="0%" y1="0%" x2="100%" y2="100%">
      <stop offset="0%" style="stop-color:#0891b2;stop-opacity:1" />
      <stop offset="100%" style="stop-color:#0d9488;stop-opacity:1" />
    </linearGradient>
  </defs>
</svg>